<mxfile host="app.diagrams.net" agent="Mozilla/5.0 (Macintosh; Intel Mac OS X 10_15_7) AppleWebKit/605.1.15 (KHTML, like Gecko) Version/18.4 Safari/605.1.15" version="28.0.7">
  <diagram name="Page-1" id="58TnTUvLrnlwUTc3l9yy">
    <mxGraphModel dx="1455" dy="829" grid="0" gridSize="10" guides="1" tooltips="1" connect="1" arrows="1" fold="1" page="1" pageScale="1" pageWidth="1169" pageHeight="827" math="0" shadow="0">
      <root>
        <mxCell id="0" />
        <mxCell id="1" parent="0" />
        <mxCell id="mLufBUS968L27i-inKiL-1" value="User" style="ellipse;whiteSpace=wrap;html=1;aspect=fixed;" parent="1" vertex="1">
          <mxGeometry x="40" y="376" width="80" height="80" as="geometry" />
        </mxCell>
        <mxCell id="mLufBUS968L27i-inKiL-2" value="" style="endArrow=classic;html=1;rounded=0;exitX=1;exitY=0.5;exitDx=0;exitDy=0;entryX=0;entryY=0.5;entryDx=0;entryDy=0;" parent="1" source="mLufBUS968L27i-inKiL-1" target="mLufBUS968L27i-inKiL-4" edge="1">
          <mxGeometry width="50" height="50" relative="1" as="geometry">
            <mxPoint x="388" y="307" as="sourcePoint" />
            <mxPoint x="269" y="237" as="targetPoint" />
          </mxGeometry>
        </mxCell>
        <mxCell id="mLufBUS968L27i-inKiL-3" value="Define country" style="rounded=0;whiteSpace=wrap;html=1;" parent="1" vertex="1">
          <mxGeometry x="401" y="553" width="120" height="60" as="geometry" />
        </mxCell>
        <mxCell id="Jjy30lpmHw-r-rbmwBUX-8" style="edgeStyle=orthogonalEdgeStyle;rounded=0;orthogonalLoop=1;jettySize=auto;html=1;exitX=1;exitY=0.5;exitDx=0;exitDy=0;entryX=0;entryY=0.5;entryDx=0;entryDy=0;" edge="1" parent="1" source="mLufBUS968L27i-inKiL-4" target="mLufBUS968L27i-inKiL-33">
          <mxGeometry relative="1" as="geometry" />
        </mxCell>
        <mxCell id="mLufBUS968L27i-inKiL-4" value="Define hazard data set" style="rounded=0;whiteSpace=wrap;html=1;" parent="1" vertex="1">
          <mxGeometry x="178" y="386" width="120" height="60" as="geometry" />
        </mxCell>
        <mxCell id="Jjy30lpmHw-r-rbmwBUX-7" style="edgeStyle=orthogonalEdgeStyle;rounded=0;orthogonalLoop=1;jettySize=auto;html=1;exitX=1;exitY=0.5;exitDx=0;exitDy=0;entryX=0;entryY=0.5;entryDx=0;entryDy=0;" edge="1" parent="1" source="mLufBUS968L27i-inKiL-5" target="mLufBUS968L27i-inKiL-15">
          <mxGeometry relative="1" as="geometry" />
        </mxCell>
        <mxCell id="mLufBUS968L27i-inKiL-5" value="Define attachment point" style="rounded=0;whiteSpace=wrap;html=1;" parent="1" vertex="1">
          <mxGeometry x="749" y="553" width="120" height="60" as="geometry" />
        </mxCell>
        <mxCell id="mLufBUS968L27i-inKiL-6" value="Define principal" style="rounded=0;whiteSpace=wrap;html=1;" parent="1" vertex="1">
          <mxGeometry x="575" y="553" width="120" height="60" as="geometry" />
        </mxCell>
        <mxCell id="mLufBUS968L27i-inKiL-64" style="edgeStyle=orthogonalEdgeStyle;rounded=0;orthogonalLoop=1;jettySize=auto;html=1;exitX=0.5;exitY=1;exitDx=0;exitDy=0;entryX=0.5;entryY=0;entryDx=0;entryDy=0;" parent="1" source="mLufBUS968L27i-inKiL-8" target="mLufBUS968L27i-inKiL-45" edge="1">
          <mxGeometry relative="1" as="geometry" />
        </mxCell>
        <mxCell id="mLufBUS968L27i-inKiL-8" value="Find optimal pools" style="rounded=0;whiteSpace=wrap;html=1;" parent="1" vertex="1">
          <mxGeometry x="1631" y="85" width="120" height="60" as="geometry" />
        </mxCell>
        <mxCell id="mLufBUS968L27i-inKiL-10" value="Compare risk-return to NPF" style="rounded=0;whiteSpace=wrap;html=1;" parent="1" vertex="1">
          <mxGeometry x="1809" y="386" width="120" height="60" as="geometry" />
        </mxCell>
        <mxCell id="mLufBUS968L27i-inKiL-62" style="edgeStyle=orthogonalEdgeStyle;rounded=0;orthogonalLoop=1;jettySize=auto;html=1;exitX=0;exitY=0.5;exitDx=0;exitDy=0;entryX=0.5;entryY=1;entryDx=0;entryDy=0;" parent="1" source="mLufBUS968L27i-inKiL-12" target="mLufBUS968L27i-inKiL-6" edge="1">
          <mxGeometry relative="1" as="geometry" />
        </mxCell>
        <mxCell id="mLufBUS968L27i-inKiL-12" value="Test CAT bond" style="rounded=0;whiteSpace=wrap;html=1;" parent="1" vertex="1">
          <mxGeometry x="1092" y="661" width="120" height="60" as="geometry" />
        </mxCell>
        <mxCell id="mLufBUS968L27i-inKiL-53" style="edgeStyle=orthogonalEdgeStyle;rounded=0;orthogonalLoop=1;jettySize=auto;html=1;exitX=1;exitY=0.5;exitDx=0;exitDy=0;entryX=0;entryY=0.5;entryDx=0;entryDy=0;" parent="1" source="mLufBUS968L27i-inKiL-13" target="mLufBUS968L27i-inKiL-8" edge="1">
          <mxGeometry relative="1" as="geometry" />
        </mxCell>
        <mxCell id="mLufBUS968L27i-inKiL-13" value="Set number of pools" style="rounded=0;whiteSpace=wrap;html=1;" parent="1" vertex="1">
          <mxGeometry x="1450" y="85" width="120" height="60" as="geometry" />
        </mxCell>
        <mxCell id="mLufBUS968L27i-inKiL-52" style="edgeStyle=orthogonalEdgeStyle;rounded=0;orthogonalLoop=1;jettySize=auto;html=1;exitX=1;exitY=0.5;exitDx=0;exitDy=0;entryX=0;entryY=0.5;entryDx=0;entryDy=0;" parent="1" source="mLufBUS968L27i-inKiL-14" target="mLufBUS968L27i-inKiL-13" edge="1">
          <mxGeometry relative="1" as="geometry" />
        </mxCell>
        <mxCell id="mLufBUS968L27i-inKiL-14" value="Set maximum principal per pool" style="rounded=0;whiteSpace=wrap;html=1;" parent="1" vertex="1">
          <mxGeometry x="1269" y="85" width="120" height="60" as="geometry" />
        </mxCell>
        <mxCell id="mLufBUS968L27i-inKiL-15" value="Create single-country CAT bond" style="rounded=0;whiteSpace=wrap;html=1;" parent="1" vertex="1">
          <mxGeometry x="921" y="553" width="120" height="60" as="geometry" />
        </mxCell>
        <mxCell id="mLufBUS968L27i-inKiL-16" value="Define countries" style="rounded=0;whiteSpace=wrap;html=1;" parent="1" vertex="1">
          <mxGeometry x="401" y="217" width="120" height="60" as="geometry" />
        </mxCell>
        <mxCell id="mLufBUS968L27i-inKiL-61" style="edgeStyle=orthogonalEdgeStyle;rounded=0;orthogonalLoop=1;jettySize=auto;html=1;exitX=0.5;exitY=0;exitDx=0;exitDy=0;entryX=0.5;entryY=0;entryDx=0;entryDy=0;" parent="1" source="mLufBUS968L27i-inKiL-21" target="mLufBUS968L27i-inKiL-6" edge="1">
          <mxGeometry relative="1" as="geometry" />
        </mxCell>
        <mxCell id="mLufBUS968L27i-inKiL-63" style="edgeStyle=orthogonalEdgeStyle;rounded=0;orthogonalLoop=1;jettySize=auto;html=1;exitX=1;exitY=0.5;exitDx=0;exitDy=0;entryX=0.5;entryY=1;entryDx=0;entryDy=0;" parent="1" source="mLufBUS968L27i-inKiL-21" target="mLufBUS968L27i-inKiL-10" edge="1">
          <mxGeometry relative="1" as="geometry" />
        </mxCell>
        <mxCell id="mLufBUS968L27i-inKiL-21" value="Get summary of CAT bond perfomrnance" style="rounded=0;whiteSpace=wrap;html=1;" parent="1" vertex="1">
          <mxGeometry x="1092" y="553" width="120" height="60" as="geometry" />
        </mxCell>
        <mxCell id="mLufBUS968L27i-inKiL-23" value="" style="endArrow=classic;html=1;rounded=0;exitX=1;exitY=0.5;exitDx=0;exitDy=0;entryX=0;entryY=0.5;entryDx=0;entryDy=0;" parent="1" source="mLufBUS968L27i-inKiL-3" target="mLufBUS968L27i-inKiL-6" edge="1">
          <mxGeometry width="50" height="50" relative="1" as="geometry">
            <mxPoint x="874" y="754" as="sourcePoint" />
            <mxPoint x="1136" y="654" as="targetPoint" />
          </mxGeometry>
        </mxCell>
        <mxCell id="mLufBUS968L27i-inKiL-24" value="" style="endArrow=classic;html=1;rounded=0;entryX=0;entryY=0.5;entryDx=0;entryDy=0;" parent="1" target="mLufBUS968L27i-inKiL-5" edge="1">
          <mxGeometry width="50" height="50" relative="1" as="geometry">
            <mxPoint x="692" y="583" as="sourcePoint" />
            <mxPoint x="597" y="575" as="targetPoint" />
          </mxGeometry>
        </mxCell>
        <mxCell id="mLufBUS968L27i-inKiL-27" value="" style="endArrow=classic;html=1;rounded=0;exitX=1;exitY=0.5;exitDx=0;exitDy=0;entryX=0;entryY=0.5;entryDx=0;entryDy=0;" parent="1" source="mLufBUS968L27i-inKiL-15" target="mLufBUS968L27i-inKiL-21" edge="1">
          <mxGeometry width="50" height="50" relative="1" as="geometry">
            <mxPoint x="945" y="640" as="sourcePoint" />
            <mxPoint x="1002" y="640" as="targetPoint" />
          </mxGeometry>
        </mxCell>
        <mxCell id="mLufBUS968L27i-inKiL-28" value="" style="endArrow=classic;html=1;rounded=0;exitX=0.5;exitY=1;exitDx=0;exitDy=0;entryX=0.5;entryY=0;entryDx=0;entryDy=0;" parent="1" source="mLufBUS968L27i-inKiL-21" target="mLufBUS968L27i-inKiL-12" edge="1">
          <mxGeometry width="50" height="50" relative="1" as="geometry">
            <mxPoint x="1222" y="714" as="sourcePoint" />
            <mxPoint x="1294" y="637" as="targetPoint" />
          </mxGeometry>
        </mxCell>
        <mxCell id="Jjy30lpmHw-r-rbmwBUX-1" style="edgeStyle=orthogonalEdgeStyle;rounded=0;orthogonalLoop=1;jettySize=auto;html=1;exitX=1;exitY=0.5;exitDx=0;exitDy=0;entryX=0;entryY=0.5;entryDx=0;entryDy=0;" edge="1" parent="1" source="mLufBUS968L27i-inKiL-31" target="mLufBUS968L27i-inKiL-35">
          <mxGeometry relative="1" as="geometry" />
        </mxCell>
        <mxCell id="mLufBUS968L27i-inKiL-31" value="Define attachment point per country" style="rounded=0;whiteSpace=wrap;html=1;" parent="1" vertex="1">
          <mxGeometry x="743" y="217" width="120" height="60" as="geometry" />
        </mxCell>
        <mxCell id="Jjy30lpmHw-r-rbmwBUX-2" value="" style="edgeStyle=orthogonalEdgeStyle;rounded=0;orthogonalLoop=1;jettySize=auto;html=1;" edge="1" parent="1" source="mLufBUS968L27i-inKiL-32" target="mLufBUS968L27i-inKiL-31">
          <mxGeometry relative="1" as="geometry" />
        </mxCell>
        <mxCell id="Jjy30lpmHw-r-rbmwBUX-3" value="" style="edgeStyle=orthogonalEdgeStyle;rounded=0;orthogonalLoop=1;jettySize=auto;html=1;" edge="1" parent="1" source="mLufBUS968L27i-inKiL-32" target="mLufBUS968L27i-inKiL-31">
          <mxGeometry relative="1" as="geometry" />
        </mxCell>
        <mxCell id="mLufBUS968L27i-inKiL-32" value="Define principal per country" style="rounded=0;whiteSpace=wrap;html=1;" parent="1" vertex="1">
          <mxGeometry x="572" y="217" width="120" height="60" as="geometry" />
        </mxCell>
        <mxCell id="Jjy30lpmHw-r-rbmwBUX-5" style="edgeStyle=orthogonalEdgeStyle;rounded=0;orthogonalLoop=1;jettySize=auto;html=1;exitX=0.5;exitY=1;exitDx=0;exitDy=0;entryX=0.5;entryY=0;entryDx=0;entryDy=0;" edge="1" parent="1" source="mLufBUS968L27i-inKiL-33" target="mLufBUS968L27i-inKiL-3">
          <mxGeometry relative="1" as="geometry" />
        </mxCell>
        <mxCell id="Jjy30lpmHw-r-rbmwBUX-6" style="edgeStyle=orthogonalEdgeStyle;rounded=0;orthogonalLoop=1;jettySize=auto;html=1;exitX=0.5;exitY=0;exitDx=0;exitDy=0;entryX=0.5;entryY=1;entryDx=0;entryDy=0;" edge="1" parent="1" source="mLufBUS968L27i-inKiL-33" target="mLufBUS968L27i-inKiL-16">
          <mxGeometry relative="1" as="geometry" />
        </mxCell>
        <mxCell id="mLufBUS968L27i-inKiL-33" value="Choose pricing approach(es)" style="rounded=0;whiteSpace=wrap;html=1;" parent="1" vertex="1">
          <mxGeometry x="401" y="385" width="120" height="60" as="geometry" />
        </mxCell>
        <mxCell id="mLufBUS968L27i-inKiL-60" style="edgeStyle=orthogonalEdgeStyle;rounded=0;orthogonalLoop=1;jettySize=auto;html=1;exitX=0;exitY=0.5;exitDx=0;exitDy=0;entryX=0.5;entryY=1;entryDx=0;entryDy=0;" parent="1" source="mLufBUS968L27i-inKiL-34" target="mLufBUS968L27i-inKiL-32" edge="1">
          <mxGeometry relative="1" as="geometry" />
        </mxCell>
        <mxCell id="mLufBUS968L27i-inKiL-34" value="Test CAT bonds" style="rounded=0;whiteSpace=wrap;html=1;" parent="1" vertex="1">
          <mxGeometry x="1092" y="325" width="120" height="60" as="geometry" />
        </mxCell>
        <mxCell id="mLufBUS968L27i-inKiL-35" value="Create single-country CAT bonds" style="rounded=0;whiteSpace=wrap;html=1;" parent="1" vertex="1">
          <mxGeometry x="915" y="217" width="120" height="60" as="geometry" />
        </mxCell>
        <mxCell id="mLufBUS968L27i-inKiL-50" style="edgeStyle=orthogonalEdgeStyle;rounded=0;orthogonalLoop=1;jettySize=auto;html=1;entryX=0;entryY=0.5;entryDx=0;entryDy=0;" parent="1" source="mLufBUS968L27i-inKiL-36" target="mLufBUS968L27i-inKiL-48" edge="1">
          <mxGeometry relative="1" as="geometry" />
        </mxCell>
        <mxCell id="mLufBUS968L27i-inKiL-51" style="edgeStyle=orthogonalEdgeStyle;rounded=0;orthogonalLoop=1;jettySize=auto;html=1;exitX=1;exitY=0.5;exitDx=0;exitDy=0;entryX=0;entryY=0.5;entryDx=0;entryDy=0;" parent="1" source="mLufBUS968L27i-inKiL-36" target="mLufBUS968L27i-inKiL-14" edge="1">
          <mxGeometry relative="1" as="geometry" />
        </mxCell>
        <mxCell id="mLufBUS968L27i-inKiL-59" style="edgeStyle=orthogonalEdgeStyle;rounded=0;orthogonalLoop=1;jettySize=auto;html=1;exitX=0.5;exitY=0;exitDx=0;exitDy=0;entryX=0.5;entryY=0;entryDx=0;entryDy=0;" parent="1" source="mLufBUS968L27i-inKiL-36" target="mLufBUS968L27i-inKiL-32" edge="1">
          <mxGeometry relative="1" as="geometry" />
        </mxCell>
        <mxCell id="mLufBUS968L27i-inKiL-36" value="Get summary of CAT bond perfomrnances" style="rounded=0;whiteSpace=wrap;html=1;" parent="1" vertex="1">
          <mxGeometry x="1092" y="217" width="120" height="60" as="geometry" />
        </mxCell>
        <mxCell id="mLufBUS968L27i-inKiL-40" value="" style="endArrow=classic;html=1;rounded=0;exitX=1;exitY=0.5;exitDx=0;exitDy=0;entryX=0;entryY=0.5;entryDx=0;entryDy=0;" parent="1" source="mLufBUS968L27i-inKiL-35" target="mLufBUS968L27i-inKiL-36" edge="1">
          <mxGeometry width="50" height="50" relative="1" as="geometry">
            <mxPoint x="945" y="304" as="sourcePoint" />
            <mxPoint x="1002" y="304" as="targetPoint" />
          </mxGeometry>
        </mxCell>
        <mxCell id="mLufBUS968L27i-inKiL-41" value="" style="endArrow=classic;html=1;rounded=0;exitX=0.5;exitY=1;exitDx=0;exitDy=0;entryX=0.5;entryY=0;entryDx=0;entryDy=0;" parent="1" source="mLufBUS968L27i-inKiL-36" target="mLufBUS968L27i-inKiL-34" edge="1">
          <mxGeometry width="50" height="50" relative="1" as="geometry">
            <mxPoint x="1222" y="378" as="sourcePoint" />
            <mxPoint x="1294" y="301" as="targetPoint" />
          </mxGeometry>
        </mxCell>
        <mxCell id="mLufBUS968L27i-inKiL-44" value="" style="endArrow=classic;html=1;rounded=0;exitX=1;exitY=0.5;exitDx=0;exitDy=0;entryX=0;entryY=0.5;entryDx=0;entryDy=0;" parent="1" source="mLufBUS968L27i-inKiL-16" target="mLufBUS968L27i-inKiL-32" edge="1">
          <mxGeometry width="50" height="50" relative="1" as="geometry">
            <mxPoint x="671" y="587" as="sourcePoint" />
            <mxPoint x="905" y="587" as="targetPoint" />
          </mxGeometry>
        </mxCell>
        <mxCell id="mLufBUS968L27i-inKiL-56" style="edgeStyle=orthogonalEdgeStyle;rounded=0;orthogonalLoop=1;jettySize=auto;html=1;exitX=1;exitY=0.5;exitDx=0;exitDy=0;entryX=0;entryY=0.5;entryDx=0;entryDy=0;" parent="1" source="mLufBUS968L27i-inKiL-45" target="mLufBUS968L27i-inKiL-46" edge="1">
          <mxGeometry relative="1" as="geometry" />
        </mxCell>
        <mxCell id="mLufBUS968L27i-inKiL-45" value="Create multi-country CAT bonds" style="rounded=0;whiteSpace=wrap;html=1;" parent="1" vertex="1">
          <mxGeometry x="1631" y="217" width="120" height="60" as="geometry" />
        </mxCell>
        <mxCell id="mLufBUS968L27i-inKiL-57" style="edgeStyle=orthogonalEdgeStyle;rounded=0;orthogonalLoop=1;jettySize=auto;html=1;exitX=0.5;exitY=1;exitDx=0;exitDy=0;entryX=0.5;entryY=0;entryDx=0;entryDy=0;" parent="1" source="mLufBUS968L27i-inKiL-46" target="mLufBUS968L27i-inKiL-10" edge="1">
          <mxGeometry relative="1" as="geometry" />
        </mxCell>
        <mxCell id="mLufBUS968L27i-inKiL-46" value="Get summary of CAT bond performances" style="rounded=0;whiteSpace=wrap;html=1;" parent="1" vertex="1">
          <mxGeometry x="1809" y="217" width="120" height="60" as="geometry" />
        </mxCell>
        <mxCell id="mLufBUS968L27i-inKiL-55" style="edgeStyle=orthogonalEdgeStyle;rounded=0;orthogonalLoop=1;jettySize=auto;html=1;exitX=1;exitY=0.5;exitDx=0;exitDy=0;entryX=0;entryY=0.5;entryDx=0;entryDy=0;" parent="1" source="mLufBUS968L27i-inKiL-48" target="mLufBUS968L27i-inKiL-45" edge="1">
          <mxGeometry relative="1" as="geometry" />
        </mxCell>
        <mxCell id="mLufBUS968L27i-inKiL-48" value="Assign individual pools" style="rounded=0;whiteSpace=wrap;html=1;" parent="1" vertex="1">
          <mxGeometry x="1269" y="217" width="120" height="60" as="geometry" />
        </mxCell>
      </root>
    </mxGraphModel>
  </diagram>
</mxfile>
